# xmcd
#
# Track frame offsets: 
#        150
#        16424
#        33212
#        48320
#        65196
#        81294
#        94864
#        110656
#        124730
#        137920
#
# Disc length: 2031 seconds
#
# Revision: 0
# Processed by: cddbd v1.5.1PL2 Copyright (c) Steve Scherf et al.
# Submitted via: ExactAudioCopy v0.95b4
#
DISCID=8a07ed0a
DTITLE=แมงปอ  ชลธิชา   ชล  อภิชาติ - คู่แท้ เพลงทอง
DYEAR=1900
DGENRE=Country
TTITLE0=ทุยอ้อนเอื้อง
TTITLE1=หูอื้อ
TTITLE2=ข้าวประดับนา
TTITLE3=เสียแล้วหาใหม่
TTITLE4=อย่าคิดมาก
TTITLE5=ฝากใจไว้เมืองจันท์
TTITLE6=ผ่อนรถ ผ่อนรัก
TTITLE7=สิบล้อฝากรัก
TTITLE8=หนุ่มอ้อนสุพรรณ
TTITLE9=ตื้อครองโลก
EXTD=
EXTT0=
EXTT1=
EXTT2=
EXTT3=
EXTT4=
EXTT5=
EXTT6=
EXTT7=
EXTT8=
EXTT9=
PLAYORDER=
